<?xml version="1.0" encoding="utf-8"?>
<!-- Generator: Adobe Illustrator 16.0.0, SVG Export Plug-In . SVG Version: 6.00 Build 0)  -->
<!DOCTYPE svg PUBLIC "-//W3C//DTD SVG 1.1//EN" "http://www.w3.org/Graphics/SVG/1.1/DTD/svg11.dtd">
<svg version="1.1" id="Layer_1" xmlns="http://www.w3.org/2000/svg" xmlns:xlink="http://www.w3.org/1999/xlink" x="0px" y="0px"
	 width="750px" height="1294px" viewBox="0 0 750 1294" enable-background="new 0 0 750 1294" xml:space="preserve">
<g>
	<path fill="#494CA3" d="M378.968,555.942c-0.271,0-0.548-0.015-0.825-0.06c-0.811-0.113-9.728-1.433-19.38-5.317
		c-9.652,3.885-18.57,5.204-19.38,5.317c-3.21,0.502-6.181-1.777-6.638-4.988c-0.458-3.21,1.777-6.188,4.987-6.645
		c0.098-0.015,2.97-0.465,7.027-1.515c-6.487-5.107-11.31-12.045-11.31-21.428c0-17.272,9.938-28.433,25.312-28.433
		c15.848,0,25.312,14.46,25.312,28.433c0,9.383-4.838,16.343-11.317,21.435c4.058,1.051,6.922,1.493,7.027,1.508
		c3.218,0.457,5.452,3.42,4.995,6.638C384.367,553.827,381.848,555.942,378.968,555.942z M358.763,504.628
		c-12.24,0-13.561,11.67-13.561,16.687c0,7.538,6.301,12.825,13.53,16.41c7.253-3.592,13.59-8.88,13.59-16.41
		C372.322,514.378,368.115,504.628,358.763,504.628z"/>
</g>
<g>
	<path fill="#494CA3" d="M383.348,650.247c-3.203,0-5.82-2.557-5.873-5.774c-0.052-2.896-0.885-51.9,1.485-88.425
		c-0.63-0.113-1.027-0.188-1.17-0.218c-3.18-0.646-5.228-3.742-4.583-6.923c0.631-3.098,3.578-5.16,6.683-4.635
		c0.953-10.042,2.25-18.308,3.99-23.16c4.726-13.132,19.237-19.965,32.385-15.255c6.368,2.287,11.453,6.923,14.341,13.035
		c2.887,6.112,3.21,12.99,0.922,19.357c-6.277,17.43-27.135,19.598-40.89,19.035c-1.815,29.25-1.732,68.692-1.41,86.984
		c0.06,3.248-2.527,5.918-5.775,5.978C383.415,650.247,383.385,650.247,383.348,650.247z M391.53,545.518
		c10.567,0.45,25.237-0.96,28.935-11.25c1.223-3.405,1.05-7.08-0.495-10.365s-4.268-5.768-7.68-6.99
		c-6.968-2.52-14.82,1.141-17.348,8.176C393.487,529.122,392.37,536.397,391.53,545.518z"/>
</g>
<g>
	<path fill="#494CA3" d="M334.178,650.397c-0.038,0-0.075,0-0.112,0c-3.248-0.06-5.828-2.729-5.768-5.978
		c0.322-18.308,0.404-57.84-1.418-87.098c-13.83,0.705-34.62-1.484-40.89-18.922c-2.288-6.368-1.958-13.238,0.922-19.351
		c2.88-6.12,7.972-10.755,14.34-13.035c6.375-2.279,13.252-1.965,19.358,0.923c6.112,2.88,10.747,7.973,13.034,14.34
		c1.733,4.822,3.023,13.021,3.976,22.987c3.06-0.495,6.053,1.508,6.697,4.605c0.66,3.18-1.38,6.285-4.56,6.952
		c-0.15,0.03-0.562,0.112-1.2,0.226c2.377,36.54,1.553,85.68,1.492,88.582C339.997,647.832,337.372,650.397,334.178,650.397z
		 M309.832,516.26c-1.552,0-3.104,0.263-4.597,0.803c-3.413,1.223-6.143,3.705-7.68,6.982c-1.545,3.285-1.718,6.968-0.495,10.38
		c3.712,10.32,18.382,11.603,28.927,11.146c-0.84-9.067-1.95-16.306-3.397-20.333c-1.229-3.405-3.705-6.135-6.982-7.68
		C313.77,516.695,311.805,516.26,309.832,516.26z"/>
</g>
<g>
	<path fill="#494CA3" d="M358.763,661.445c-19.493,0-38.393-4.357-56.16-12.96c-2.97-1.44-4.853-4.448-4.853-7.748v-23.303
		c-42.255-22.604-68.28-65.744-68.28-113.864c0-71.295,57.998-129.293,129.292-129.293s129.292,57.998,129.292,129.293
		c0,48.127-26.024,91.274-68.279,113.864v23.303c0,3.3-1.891,6.315-4.853,7.748C397.14,657.088,378.247,661.445,358.763,661.445z
		 M314.955,635.21c27.96,11.985,59.625,11.985,87.615,0v-23.048c0-3.3,1.89-6.314,4.859-7.747
		c39.113-18.907,63.413-57.555,63.413-100.838c0-61.8-50.28-112.08-112.08-112.08c-61.8,0-112.08,50.28-112.08,112.08
		c0,43.283,24.3,81.923,63.42,100.838c2.97,1.433,4.86,4.447,4.86,7.747v23.048H314.955z"/>
</g>
<g>
	<path fill="#494CA3" d="M359.872,686.128c-17.452,0-34.71-2.835-51.284-8.431c-3.848-1.297-5.91-5.467-4.613-9.308
		c1.297-3.832,5.467-5.909,9.307-4.604c30.136,10.155,63.083,10.155,93.188,0c3.893-1.298,8.011,0.78,9.308,4.604
		c1.298,3.848-0.772,8.011-4.604,9.308C394.59,683.293,377.332,686.128,359.872,686.128z"/>
</g>
<g>
	<path fill="#494CA3" d="M359.88,707.593c-13.252,0-26.564-1.703-39.562-5.048c-3.93-1.013-6.292-5.018-5.287-8.939
		c1.013-3.923,5.002-6.308,8.947-5.28c23.715,6.098,48.428,6.075,72-0.061c3.87-1.034,7.928,1.335,8.955,5.266
		c1.02,3.922-1.343,7.935-5.265,8.955C386.633,705.875,373.245,707.593,359.88,707.593z"/>
</g>
<g>
	<path fill="#494CA3" d="M358.763,753.365c-17.362,0-31.493-14.13-31.493-31.5c0-2.033,0.233-4.096,0.735-6.48
		c0.811-3.854,4.47-6.428,8.4-5.737c15.547,2.588,29.25,2.715,44.902,0.322c3.907-0.54,7.59,2.018,8.317,5.896
		c0.3,1.56,0.638,3.645,0.638,6C390.263,739.235,376.133,753.365,358.763,753.365z M342.322,725.315
		c1.598,7.619,8.362,13.35,16.44,13.35c7.995,0,14.707-5.617,16.402-13.11C364.013,726.702,353.452,726.612,342.322,725.315z"/>
</g>
<g>
	<path fill="#494CA3" d="M186.248,510.125h-44.415c-5.1,0-9.225-4.133-9.225-9.225c0-5.093,4.133-9.226,9.225-9.226h44.415
		c5.1,0,9.225,4.133,9.225,9.226C195.473,505.992,191.348,510.125,186.248,510.125z"/>
</g>
<g>
	<path fill="#494CA3" d="M575.678,510.125h-44.4c-5.1,0-9.225-4.133-9.225-9.225c0-5.093,4.133-9.226,9.225-9.226h44.4
		c5.1,0,9.225,4.133,9.225,9.226C584.902,505.992,580.777,510.125,575.678,510.125z"/>
</g>
<g>
	<path fill="#494CA3" d="M358.763,337.61c-5.101,0-9.226-4.132-9.226-9.225v-44.407c0-5.1,4.133-9.225,9.226-9.225
		s9.225,4.132,9.225,9.225v44.407C367.987,333.478,363.862,337.61,358.763,337.61z"/>
</g>
<g>
	<path fill="#494CA3" d="M205.38,663.508c-2.362,0-4.725-0.9-6.525-2.7c-3.6-3.601-3.6-9.45,0-13.05l31.395-31.403
		c3.6-3.6,9.45-3.6,13.05,0c3.6,3.601,3.6,9.45,0,13.051l-31.395,31.402C210.105,662.607,207.743,663.508,205.38,663.508z"/>
</g>
<g>
	<path fill="#494CA3" d="M480.758,388.138c-2.355,0-4.726-0.9-6.525-2.7c-3.6-3.6-3.6-9.45,0-13.05l31.396-31.403
		c3.6-3.592,9.449-3.6,13.05,0c3.6,3.6,3.6,9.45,0,13.05l-31.396,31.402C485.475,387.237,483.12,388.138,480.758,388.138z"/>
</g>
<g>
	<path fill="#494CA3" d="M236.768,388.138c-2.363,0-4.725-0.9-6.525-2.7l-31.395-31.41c-3.6-3.6-3.6-9.45,0-13.05
		c3.6-3.6,9.45-3.6,13.05,0l31.395,31.41c3.6,3.6,3.6,9.45,0,13.05C241.493,387.237,239.13,388.138,236.768,388.138z"/>
</g>
<g>
	<path fill="#494CA3" d="M512.145,663.515c-2.362,0-4.725-0.899-6.524-2.699l-31.396-31.403c-3.6-3.6-3.6-9.449,0-13.05
		c3.607-3.615,9.458-3.6,13.051,0l31.395,31.402c3.6,3.601,3.6,9.45,0,13.051C516.87,662.615,514.508,663.515,512.145,663.515z"/>
</g>
</svg>
