<?xml version="1.0" encoding="utf-8"?>
<!-- Generator: Adobe Illustrator 16.0.0, SVG Export Plug-In . SVG Version: 6.00 Build 0)  -->
<!DOCTYPE svg PUBLIC "-//W3C//DTD SVG 1.1//EN" "http://www.w3.org/Graphics/SVG/1.1/DTD/svg11.dtd">
<svg version="1.1" id="Layer_1" xmlns="http://www.w3.org/2000/svg" xmlns:xlink="http://www.w3.org/1999/xlink" x="0px" y="0px"
	 width="750px" height="732px" viewBox="0 233.5 750 732" enable-background="new 0 233.5 750 732" xml:space="preserve">
<path fill="#494CA3" d="M250,272h281.25c51.875,0,93.75,41.875,93.75,93.75V772c0,51.875-41.875,93.75-93.75,93.75H250
	c-51.875,0-93.75-41.875-93.75-93.75V365.75C156.25,313.875,198.125,272,250,272 M250,303.25c-34.375,0-62.5,28.125-62.5,62.5V772
	c0,34.375,28.125,62.5,62.5,62.5h281.25c34.375,0,62.5-28.125,62.5-62.5V365.75c0-34.375-28.125-62.5-62.5-62.5H437.5v209.375
	L343.75,447L250,512.625V303.25 M406.25,303.25h-125v149.375l62.5-43.75l62.5,43.75V303.25 M250,928.25
	c-86.25,0-156.25-70-156.25-156.25V397H125v375c0,69.062,55.938,125,125,125h250v31.25H250z"/>
</svg>
