<?xml version="1.0" encoding="utf-8"?>
<!-- Generator: Adobe Illustrator 16.0.0, SVG Export Plug-In . SVG Version: 6.00 Build 0)  -->
<!DOCTYPE svg PUBLIC "-//W3C//DTD SVG 1.1//EN" "http://www.w3.org/Graphics/SVG/1.1/DTD/svg11.dtd">
<svg version="1.1" id="Layer_1" xmlns="http://www.w3.org/2000/svg" xmlns:xlink="http://www.w3.org/1999/xlink" x="0px" y="0px"
	 width="750px" height="1294px" viewBox="0 0 750 1294" enable-background="new 0 0 750 1294" xml:space="preserve">
<g>
	<path fill="#494CA3" d="M660,591.999c6.211,0,11.25-5.036,11.25-11.25V523.25c0-6.215-5.039-11.25-11.25-11.25H517.386
		c-8.863-67.565-64.737-120.414-133.641-124.591V354.5H495c6.211,0,11.25-5.035,11.25-11.25v-77.065
		c0-6.215-5.039-11.25-11.25-11.25H372.499c-6.215,0-11.25,5.035-11.25,11.25v77.065v44.416
		C294.647,394.024,241.266,446.068,232.618,512H90c-6.215,0-11.25,5.035-11.25,11.25v57.499c0,6.214,5.035,11.25,11.25,11.25h31.249
		v180.626H90c-6.215,0-11.25,5.035-11.25,11.25v57.499c0,6.214,5.035,11.25,11.25,11.25h570c6.211,0,11.25-5.036,11.25-11.25
		v-57.499c0-6.215-5.039-11.25-11.25-11.25h-24.998V591.999H660z M383.752,277.435h99.998V332h-99.998V277.435z M375,409.501
		c60.463,0,110.59,44.537,119.65,102.499H255.354C264.414,454.038,314.537,409.501,375,409.501z M101.25,534.5h130.689h21.123
		h243.879h21.122H648.75v34.999h-547.5V534.5z M471.248,772.625V591.999h59.377v180.626H471.248z M389.37,772.625V591.999h59.378
		v180.626H389.37z M307.5,772.625V591.999h59.374v180.626H307.5z M225.626,772.625V591.999H285v180.626H225.626z M143.749,591.999
		h59.377v180.626h-59.377V591.999z M648.75,830.124h-547.5v-34.999h547.5V830.124z M612.502,772.625h-59.377V591.999h59.377V772.625
		z"/>
</g>
</svg>
